# xmcd CD database file
#
# Track frame offsets:
#	150
#	14901
#	28782
#	44078
#	61535
#	76968
#	92809
#	108385
#	123512
#	139488
#	154762
#	169658
#	184000
#
# Disc length: 2640 seconds
#
# Revision: 0
# Processed by: cddbd v1.5.1PL0 Copyright (c) Steve Scherf et al.
# Submitted via: CDex 1.51
#
DISCID=b10a4e0d
DTITLE=Die Flippers - Liebe ist eine Rose
DYEAR=1900
DGENRE=Deutsch
TTITLE0=Hasta La vista
TTITLE1=Denn heute schenk ich dir rote Rosen
TTITLE2=Im heißen Sand von Rhodos
TTITLE3=Schenk mir ein paar Worte
TTITLE4=Ich hab heut ein Rendezvous mit deinem Herzen
TTITLE5=Zwei Herzen suchen Liebe
TTITLE6=Mädchen von Capri
TTITLE7=Roter Mond von El Dorado
TTITLE8=Sie geht den Weg der Einsamkeit
TTITLE9=Schließ die Augen
TTITLE10=Wenn in San Remo die roten Rosen blühn
TTITLE11=Natascha
TTITLE12=Schmetterlinge
EXTD=
EXTT0=
EXTT1=
EXTT2=
EXTT3=
EXTT4=
EXTT5=
EXTT6=
EXTT7=
EXTT8=
EXTT9=
EXTT10=
EXTT11=
EXTT12=
PLAYORDER=
